<svg xmlns="http://www.w3.org/2000/svg"
     viewBox="0 0 25 25"
     width="24"
     height="24"
     fill="#ece5e5">

  <path d="M12 .5C5.73.5.75 5.7.75 12.3c0 5.3 3.44 9.8 8.2 11.4.6.12.82-.27.82-.58v-2.05c-3.34.74-4.04-1.7-4.04-1.7-.55-1.46-1.35-1.85-1.35-1.85-1.1-.78.08-.76.08-.76 1.22.09 1.86 1.3 1.86 1.3 1.08 1.93 2.84 1.37 3.53 1.05.11-.8.42-1.37.76-1.68-2.66-.31-5.47-1.45-5.47-6.3 0-1.4.48-2.55 1.27-3.45-.13-.31-.55-1.57.12-3.27 0 0 1.03-.34 3.38 1.3 1-.3 2.04-.46 3.08-.47 1.04.01 2.08.17 3.08.47 2.35-1.64 3.38-1.3 3.38-1.3.67 1.7.25 2.96.12 3.27.79.9 1.27 2.05 1.27 3.45 0 4.87-2.81 6-5.49 6.3.43.39.82 1.16.82 2.34v3.46c0 .31.22.7.82.58 4.76-1.6 8.2-6.1 8.2-11.4C23.25 5.7 18.27.5 12 .5z"/>
</svg>