<svg xmlns="http://www.w3.org/2000/svg"
     viewBox="0 0 24 24"
     fill="none"
     stroke="#ece5e5"
     stroke-width="0.6"
     stroke-linecap="round"
     stroke-linejoin="round">

<path d="M4.95748 6.97534L10.9573 3.30843C11.2713 3.11668 11.6321 3.01514 12 3.01514C12.3679 3.01514 12.7287 3.11662 13.0427 3.30843L19.0427 6.97543C19.3352 7.15413 19.5768 7.405 19.7445 7.70398C19.9121 8.00295 20.0001 8.34031 20 8.68308V15.3171C20 15.6597 19.912 15.9966 19.7443 16.2955C19.5767 16.5943 19.3349 16.8452 19.0425 17.0238L13.0427 20.6907C12.7287 20.8825 12.3679 20.984 12 20.984C11.6321 20.984 11.2713 20.8825 10.9573 20.6907C10.486 20.4028 9.87057 20.5515 9.58265 21.0227C9.29472 21.494 9.44337 22.1095 9.91467 22.3974C10.5426 22.781 11.2642 22.984 12 22.984C12.7358 22.984 13.4576 22.781 14.0855 22.3973L20.0855 18.7303C20.6702 18.3731 21.1534 17.8716 21.4886 17.2739C21.8239 16.6762 22 16.0024 22 15.3171V8.68308C22.0002 7.99765 21.8242 7.32368 21.489 6.72582C21.1537 6.12786 20.6703 5.62612 20.0853 5.26872L14.0853 1.60172C13.4574 1.21811 12.7358 1.01514 12 1.01514C11.2642 1.01514 10.5424 1.2182 9.91452 1.60182L3.91452 5.26882C3.32977 5.62609 2.84661 6.12759 2.51137 6.72523C2.1761 7.32293 2.00001 7.99677 2 8.68208V15.3171C1.99984 16.0025 2.17581 16.6765 2.51105 17.2743C2.84633 17.8723 3.32966 18.374 3.91467 18.7314C3.92245 18.7362 3.93029 18.7408 3.93819 18.7454L5.5062 19.6454C5.96226 19.9072 6.47916 20.0446 7.00506 20.0437C7.53104 20.0428 8.04754 19.9037 8.50277 19.6402C8.958 19.3767 9.33596 18.9982 9.59874 18.5426C9.86153 18.0869 9.99991 17.5701 10 17.0441V9.00008C10 8.44779 9.55228 8.00008 9 8.00008C8.44772 8.00008 8 8.44779 8 9.00008V17.0441C7.99994 17.2193 7.95381 17.3915 7.86625 17.5433C7.77865 17.6952 7.65267 17.8214 7.50092 17.9092C7.34918 17.997 7.17701 18.0434 7.00169 18.0437C6.82636 18.044 6.65385 17.9981 6.50181 17.9108L4.94688 17.0183C4.65907 16.84 4.42116 16.5916 4.25552 16.2962C4.08788 15.9972 3.99989 15.6598 4 15.3171V8.68208C4.00001 8.33943 4.08805 8.00253 4.25569 7.70369C4.42332 7.40484 4.66508 7.15398 4.95748 6.97534Z" fill="#ece5e5"/><path d="M13.5 8C12.837 8 12.2011 8.26339 11.7322 8.73223C11.2634 9.20107 11 9.83696 11 10.5C11 11.163 11.2634 11.7989 11.7322 12.2678C12.2011 12.7366 12.837 13 13.5 13H15.5C15.6326 13 15.7598 13.0527 15.8536 13.1464C15.9473 13.2402 16 13.3674 16 13.5C16 13.6326 15.9473 13.7598 15.8536 13.8536C15.7598 13.9473 15.6326 14 15.5 14H12C11.4477 14 11 14.4477 11 15C11 15.5523 11.4477 16 12 16H15.5C16.163 16 16.7989 15.7366 17.2678 15.2678C17.7366 14.7989 18 14.163 18 13.5C18 12.837 17.7366 12.2011 17.2678 11.7322C16.7989 11.2634 16.163 11 15.5 11H13.5C13.3674 11 13.2402 10.9473 13.1464 10.8536C13.0527 10.7598 13 10.6326 13 10.5C13 10.3674 13.0527 10.2402 13.1464 10.1464C13.2402 10.0527 13.3674 10 13.5 10H17C17.5523 10 18 9.55229 18 9C18 8.44772 17.5523 8 17 8H13.5Z" fill="#ece5e5"/></svg>