<svg xmlns="http://www.w3.org/2000/svg"  viewBox="0 0 100 100" width="18px" height="18px"><path d="M 79.068359 16.267578 A 1.0001 1.0001 0 0 0 78.304688 16.609375 L 43.878906 56.056641 C 43.516184 56.436075 43.254522 56.466107 42.941406 56.425781 C 42.626938 56.385281 42.272142 56.168359 42.154297 56.046875 A 1.0001 1.0001 0 0 0 42.146484 56.039062 L 24.640625 38.431641 A 1.0001 1.0001 0 0 0 24.134766 38.158203 C 20.621389 37.429092 16.975953 39.794473 14.152344 42.625 C 12.740539 44.040263 11.529857 45.607276 10.664062 47.105469 C 9.7982684 48.603662 9.2342328 50.000282 9.3007812 51.318359 A 1.0001 1.0001 0 0 0 9.6054688 51.986328 L 38.767578 80.132812 L 38.755859 80.119141 C 39.9211 81.284381 41.395283 81.699286 42.679688 81.638672 C 43.963037 81.578112 45.084541 81.12651 45.818359 80.332031 L 45.820312 80.330078 L 93.787109 28.712891 A 1.0001 1.0001 0 0 0 94.007812 27.730469 C 93.152978 25.03422 91.167943 22.246012 88.535156 20.0625 C 85.902369 17.878988 82.594884 16.299786 79.068359 16.267578 z M 79.439453 18.351562 C 82.238211 18.489469 85.002568 19.731168 87.257812 21.601562 C 89.456119 23.424736 91.064748 25.759702 91.853516 27.857422 L 50.955078 71.865234 C 49.678183 72.867939 44.190188 76.893313 41.203125 73.90625 C 35.123183 67.825322 18.772689 49.859216 18.017578 49.152344 A 3.118 9.097 47.731 0 0 19.285156 48.076172 A 3.118 9.097 47.731 0 0 24.224609 40.849609 L 40.71875 57.439453 C 40.792604 57.515587 40.879223 57.583745 40.962891 57.654297 L 40.955078 57.65625 C 40.955078 57.65625 41.061092 57.739491 41.083984 57.759766 C 41.093643 57.76711 41.101554 57.775943 41.111328 57.783203 C 41.519074 58.140386 44.178205 60.34585 46.576172 58.931641 C 51.026517 56.306514 66.987891 33.435198 69.738281 29.46875 L 79.439453 18.351562 z"/></svg>